<?xml version="1.0" encoding="UTF-8" standalone="no"?>
<!DOCTYPE svg PUBLIC "-//W3C//DTD SVG 1.1//EN"
 "http://www.w3.org/Graphics/SVG/1.1/DTD/svg11.dtd">
<!-- Generated by graphviz version 2.40.1 (20161225.0304)
 -->
<!-- Title: dependencies Pages: 1 -->
<svg width="1317pt" height="284pt"
 viewBox="0.00 0.00 1317.00 284.00" xmlns="http://www.w3.org/2000/svg" xmlns:xlink="http://www.w3.org/1999/xlink">
<g id="graph0" class="graph" transform="scale(1 1) rotate(0) translate(4 280)">
<title>dependencies</title>
<polygon fill="#ffffff" stroke="transparent" points="-4,4 -4,-280 1313,-280 1313,4 -4,4"/>
<text text-anchor="start" x="633.5091" y="-42.4" font-family="sans-serif" font-weight="bold" font-size="14.00" fill="#000000">Legend</text>
<polygon fill="#ffffb3" stroke="transparent" points="420.5,-10 420.5,-30 440.5,-30 440.5,-10 420.5,-10"/>
<text text-anchor="start" x="444.129" y="-15.4" font-family="sans-serif" font-size="14.00" fill="#000000"> &#160;Declarations</text>
<polygon fill="#8dd3c7" stroke="transparent" points="533.5,-10 533.5,-30 553.5,-30 553.5,-10 533.5,-10"/>
<text text-anchor="start" x="557.2251" y="-15.4" font-family="sans-serif" font-size="14.00" fill="#000000"> &#160;Module</text>
<polygon fill="#80b1d3" stroke="transparent" points="619.5,-10 619.5,-30 639.5,-30 639.5,-10 619.5,-10"/>
<text text-anchor="start" x="643.2812" y="-15.4" font-family="sans-serif" font-size="14.00" fill="#000000"> &#160;Bootstrap</text>
<polygon fill="#fdb462" stroke="transparent" points="716.5,-10 716.5,-30 736.5,-30 736.5,-10 716.5,-10"/>
<text text-anchor="start" x="740.1732" y="-15.4" font-family="sans-serif" font-size="14.00" fill="#000000"> &#160;Providers</text>
<polygon fill="#fb8072" stroke="transparent" points="812.5,-10 812.5,-30 832.5,-30 832.5,-10 812.5,-10"/>
<text text-anchor="start" x="836.2258" y="-15.4" font-family="sans-serif" font-size="14.00" fill="#000000"> &#160;Exports</text>
<g id="clust1" class="cluster">
<title>cluster_HorizontalLayout1Module</title>
<polygon fill="none" stroke="#000000" stroke-dasharray="1,5" points="8,-70 8,-268 1301,-268 1301,-70 8,-70"/>
</g>
<g id="clust2" class="cluster">
<title>cluster_HorizontalLayout1Module_declarations</title>
<polygon fill="none" stroke="#000000" points="1089,-78 1089,-130 1293,-130 1293,-78 1089,-78"/>
</g>
<g id="clust4" class="cluster">
<title>cluster_HorizontalLayout1Module_imports</title>
<polygon fill="none" stroke="#000000" points="16,-78 16,-130 1081,-130 1081,-78 16,-78"/>
</g>
<g id="clust5" class="cluster">
<title>cluster_HorizontalLayout1Module_exports</title>
<polygon fill="none" stroke="#000000" points="485,-208 485,-260 693,-260 693,-208 485,-208"/>
</g>
<!-- HorizontalLayout1Component -->
<g id="node1" class="node">
<title>HorizontalLayout1Component</title>
<polygon fill="#ffffb3" stroke="#000000" points="1284.8585,-122 1097.1415,-122 1097.1415,-86 1284.8585,-86 1284.8585,-122"/>
<text text-anchor="middle" x="1191" y="-99.8" font-family="Times,serif" font-size="14.00" fill="#000000">HorizontalLayout1Component</text>
</g>
<!-- HorizontalLayout1Module -->
<g id="node2" class="node">
<title>HorizontalLayout1Module</title>
<polygon fill="#8dd3c7" stroke="#000000" points="672.0758,-187 669.0758,-191 648.0758,-191 645.0758,-187 505.9242,-187 505.9242,-151 672.0758,-151 672.0758,-187"/>
<text text-anchor="middle" x="589" y="-164.8" font-family="Times,serif" font-size="14.00" fill="#000000">HorizontalLayout1Module</text>
</g>
<!-- HorizontalLayout1Component&#45;&gt;HorizontalLayout1Module -->
<g id="edge1" class="edge">
<title>HorizontalLayout1Component&#45;&gt;HorizontalLayout1Module</title>
<path fill="none" stroke="#000000" d="M1191,-122.0109C1191,-144.4852 1191,-180 1191,-180 1191,-180 682.0735,-180 682.0735,-180"/>
<polygon fill="#000000" stroke="#000000" points="682.0735,-176.5001 672.0735,-180 682.0734,-183.5001 682.0735,-176.5001"/>
</g>
<!-- HorizontalLayout1Component  -->
<g id="node11" class="node">
<title>HorizontalLayout1Component </title>
<polygon fill="#fb8072" stroke="#000000" points="684.8587,-252 493.1413,-252 493.1413,-216 684.8587,-216 684.8587,-252"/>
<text text-anchor="middle" x="589" y="-229.8" font-family="Times,serif" font-size="14.00" fill="#000000">HorizontalLayout1Component </text>
</g>
<!-- HorizontalLayout1Module&#45;&gt;HorizontalLayout1Component  -->
<g id="edge10" class="edge">
<title>HorizontalLayout1Module&#45;&gt;HorizontalLayout1Component </title>
<path fill="none" stroke="#000000" stroke-dasharray="5,2" d="M589,-187.1061C589,-187.1061 589,-205.991 589,-205.991"/>
<polygon fill="#000000" stroke="#000000" points="585.5001,-205.9909 589,-215.991 592.5001,-205.991 585.5001,-205.9909"/>
</g>
<!-- AppThemeOptionsModule -->
<g id="node3" class="node">
<title>AppThemeOptionsModule</title>
<polygon fill="#8dd3c7" stroke="#000000" points="1073.3613,-122 1070.3613,-126 1049.3613,-126 1046.3613,-122 906.6387,-122 906.6387,-86 1073.3613,-86 1073.3613,-122"/>
<text text-anchor="middle" x="990" y="-99.8" font-family="Times,serif" font-size="14.00" fill="#000000">AppThemeOptionsModule</text>
</g>
<!-- AppThemeOptionsModule&#45;&gt;HorizontalLayout1Module -->
<g id="edge2" class="edge">
<title>AppThemeOptionsModule&#45;&gt;HorizontalLayout1Module</title>
<path fill="none" stroke="#000000" d="M990,-122.1289C990,-142.5724 990,-173 990,-173 990,-173 682.0875,-173 682.0875,-173"/>
<polygon fill="#000000" stroke="#000000" points="682.0875,-169.5001 672.0875,-173 682.0874,-176.5001 682.0875,-169.5001"/>
</g>
<!-- ContentModule -->
<g id="node4" class="node">
<title>ContentModule</title>
<polygon fill="#8dd3c7" stroke="#000000" points="888.8823,-122 885.8823,-126 864.8823,-126 861.8823,-122 785.1177,-122 785.1177,-86 888.8823,-86 888.8823,-122"/>
<text text-anchor="middle" x="837" y="-99.8" font-family="Times,serif" font-size="14.00" fill="#000000">ContentModule</text>
</g>
<!-- ContentModule&#45;&gt;HorizontalLayout1Module -->
<g id="edge3" class="edge">
<title>ContentModule&#45;&gt;HorizontalLayout1Module</title>
<path fill="none" stroke="#000000" d="M837,-122.2667C837,-140.5552 837,-166 837,-166 837,-166 682.2703,-166 682.2703,-166"/>
<polygon fill="#000000" stroke="#000000" points="682.2704,-162.5001 672.2703,-166 682.2703,-169.5001 682.2704,-162.5001"/>
</g>
<!-- FooterModule -->
<g id="node5" class="node">
<title>FooterModule</title>
<polygon fill="#8dd3c7" stroke="#000000" points="767.0983,-122 764.0983,-126 743.0983,-126 740.0983,-122 670.9017,-122 670.9017,-86 767.0983,-86 767.0983,-122"/>
<text text-anchor="middle" x="719" y="-99.8" font-family="Times,serif" font-size="14.00" fill="#000000">FooterModule</text>
</g>
<!-- FooterModule&#45;&gt;HorizontalLayout1Module -->
<g id="edge4" class="edge">
<title>FooterModule&#45;&gt;HorizontalLayout1Module</title>
<path fill="none" stroke="#000000" d="M678.3586,-122.0091C678.3586,-138.0494 678.3586,-159 678.3586,-159 678.3586,-159 677.7444,-159 677.7444,-159"/>
<polygon fill="#000000" stroke="#000000" points="682.2166,-155.5002 672.2166,-159 682.2165,-162.5002 682.2166,-155.5002"/>
</g>
<!-- FuseSidebarModule -->
<g id="node6" class="node">
<title>FuseSidebarModule</title>
<polygon fill="#8dd3c7" stroke="#000000" points="653.2548,-122 650.2548,-126 629.2548,-126 626.2548,-122 524.7452,-122 524.7452,-86 653.2548,-86 653.2548,-122"/>
<text text-anchor="middle" x="589" y="-99.8" font-family="Times,serif" font-size="14.00" fill="#000000">FuseSidebarModule</text>
</g>
<!-- FuseSidebarModule&#45;&gt;HorizontalLayout1Module -->
<g id="edge5" class="edge">
<title>FuseSidebarModule&#45;&gt;HorizontalLayout1Module</title>
<path fill="none" stroke="#000000" d="M589,-122.1061C589,-122.1061 589,-140.991 589,-140.991"/>
<polygon fill="#000000" stroke="#000000" points="585.5001,-140.9909 589,-150.991 592.5001,-140.991 585.5001,-140.9909"/>
</g>
<!-- NavbarModule -->
<g id="node7" class="node">
<title>NavbarModule</title>
<polygon fill="#8dd3c7" stroke="#000000" points="506.2465,-122 503.2465,-126 482.2465,-126 479.2465,-122 405.7535,-122 405.7535,-86 506.2465,-86 506.2465,-122"/>
<text text-anchor="middle" x="456" y="-99.8" font-family="Times,serif" font-size="14.00" fill="#000000">NavbarModule</text>
</g>
<!-- NavbarModule&#45;&gt;HorizontalLayout1Module -->
<g id="edge6" class="edge">
<title>NavbarModule&#45;&gt;HorizontalLayout1Module</title>
<path fill="none" stroke="#000000" d="M499.6415,-122.0109C499.6415,-144.4852 499.6415,-180 499.6415,-180 499.6415,-180 500.2556,-180 500.2556,-180"/>
<polygon fill="#000000" stroke="#000000" points="495.7835,-183.5002 505.7834,-180 495.7834,-176.5002 495.7835,-183.5002"/>
</g>
<!-- QuickPanelModule -->
<g id="node8" class="node">
<title>QuickPanelModule</title>
<polygon fill="#8dd3c7" stroke="#000000" points="387.3641,-122 384.3641,-126 363.3641,-126 360.3641,-122 262.6359,-122 262.6359,-86 387.3641,-86 387.3641,-122"/>
<text text-anchor="middle" x="325" y="-99.8" font-family="Times,serif" font-size="14.00" fill="#000000">QuickPanelModule</text>
</g>
<!-- QuickPanelModule&#45;&gt;HorizontalLayout1Module -->
<g id="edge7" class="edge">
<title>QuickPanelModule&#45;&gt;HorizontalLayout1Module</title>
<path fill="none" stroke="#000000" d="M325,-122.0091C325,-138.0494 325,-159 325,-159 325,-159 495.8311,-159 495.8311,-159"/>
<polygon fill="#000000" stroke="#000000" points="495.8311,-162.5001 505.8311,-159 495.8311,-155.5001 495.8311,-162.5001"/>
</g>
<!-- SharedModule -->
<g id="node9" class="node">
<title>SharedModule</title>
<polygon fill="#8dd3c7" stroke="#000000" points="244.4231,-122 241.4231,-126 220.4231,-126 217.4231,-122 145.5769,-122 145.5769,-86 244.4231,-86 244.4231,-122"/>
<text text-anchor="middle" x="195" y="-99.8" font-family="Times,serif" font-size="14.00" fill="#000000">SharedModule</text>
</g>
<!-- SharedModule&#45;&gt;HorizontalLayout1Module -->
<g id="edge8" class="edge">
<title>SharedModule&#45;&gt;HorizontalLayout1Module</title>
<path fill="none" stroke="#000000" d="M195,-122.2667C195,-140.5552 195,-166 195,-166 195,-166 495.9242,-166 495.9242,-166"/>
<polygon fill="#000000" stroke="#000000" points="495.9242,-169.5001 505.9242,-166 495.9241,-162.5001 495.9242,-169.5001"/>
</g>
<!-- ToolbarModule -->
<g id="node10" class="node">
<title>ToolbarModule</title>
<polygon fill="#8dd3c7" stroke="#000000" points="127.8683,-122 124.8683,-126 103.8683,-126 100.8683,-122 24.1317,-122 24.1317,-86 127.8683,-86 127.8683,-122"/>
<text text-anchor="middle" x="76" y="-99.8" font-family="Times,serif" font-size="14.00" fill="#000000">ToolbarModule</text>
</g>
<!-- ToolbarModule&#45;&gt;HorizontalLayout1Module -->
<g id="edge9" class="edge">
<title>ToolbarModule&#45;&gt;HorizontalLayout1Module</title>
<path fill="none" stroke="#000000" d="M76,-122.1289C76,-142.5724 76,-173 76,-173 76,-173 495.7219,-173 495.7219,-173"/>
<polygon fill="#000000" stroke="#000000" points="495.722,-176.5001 505.7219,-173 495.7219,-169.5001 495.722,-176.5001"/>
</g>
</g>
</svg>
