<?xml version="1.0" encoding="UTF-8" standalone="no"?>
<!DOCTYPE svg PUBLIC "-//W3C//DTD SVG 1.1//EN"
 "http://www.w3.org/Graphics/SVG/1.1/DTD/svg11.dtd">
<!-- Generated by graphviz version 2.40.1 (20161225.0304)
 -->
<!-- Title: dependencies Pages: 1 -->
<svg width="1408pt" height="284pt"
 viewBox="0.00 0.00 1408.00 284.00" xmlns="http://www.w3.org/2000/svg" xmlns:xlink="http://www.w3.org/1999/xlink">
<g id="graph0" class="graph" transform="scale(1 1) rotate(0) translate(4 280)">
<title>dependencies</title>
<polygon fill="#ffffff" stroke="transparent" points="-4,4 -4,-280 1404,-280 1404,4 -4,4"/>
<text text-anchor="start" x="679.0091" y="-42.4" font-family="sans-serif" font-weight="bold" font-size="14.00" fill="#000000">Legend</text>
<polygon fill="#ffffb3" stroke="transparent" points="466,-10 466,-30 486,-30 486,-10 466,-10"/>
<text text-anchor="start" x="489.629" y="-15.4" font-family="sans-serif" font-size="14.00" fill="#000000"> &#160;Declarations</text>
<polygon fill="#8dd3c7" stroke="transparent" points="579,-10 579,-30 599,-30 599,-10 579,-10"/>
<text text-anchor="start" x="602.7251" y="-15.4" font-family="sans-serif" font-size="14.00" fill="#000000"> &#160;Module</text>
<polygon fill="#80b1d3" stroke="transparent" points="665,-10 665,-30 685,-30 685,-10 665,-10"/>
<text text-anchor="start" x="688.7812" y="-15.4" font-family="sans-serif" font-size="14.00" fill="#000000"> &#160;Bootstrap</text>
<polygon fill="#fdb462" stroke="transparent" points="762,-10 762,-30 782,-30 782,-10 762,-10"/>
<text text-anchor="start" x="785.6732" y="-15.4" font-family="sans-serif" font-size="14.00" fill="#000000"> &#160;Providers</text>
<polygon fill="#fb8072" stroke="transparent" points="858,-10 858,-30 878,-30 878,-10 858,-10"/>
<text text-anchor="start" x="881.7258" y="-15.4" font-family="sans-serif" font-size="14.00" fill="#000000"> &#160;Exports</text>
<g id="clust1" class="cluster">
<title>cluster_TWidgetsModule</title>
<polygon fill="none" stroke="#000000" stroke-dasharray="1,5" points="8,-70 8,-268 1392,-268 1392,-70 8,-70"/>
</g>
<g id="clust3" class="cluster">
<title>cluster_TWidgetsModule_imports</title>
<polygon fill="none" stroke="#000000" points="680,-78 680,-130 1384,-130 1384,-78 680,-78"/>
</g>
<g id="clust4" class="cluster">
<title>cluster_TWidgetsModule_exports</title>
<polygon fill="none" stroke="#000000" points="528,-208 528,-260 1130,-260 1130,-208 528,-208"/>
</g>
<g id="clust6" class="cluster">
<title>cluster_TWidgetsModule_providers</title>
<polygon fill="none" stroke="#000000" points="16,-78 16,-130 672,-130 672,-78 16,-78"/>
</g>
<!-- SharedModule -->
<g id="node1" class="node">
<title>SharedModule</title>
<polygon fill="#8dd3c7" stroke="#000000" points="1376.4231,-122 1373.4231,-126 1352.4231,-126 1349.4231,-122 1277.5769,-122 1277.5769,-86 1376.4231,-86 1376.4231,-122"/>
<text text-anchor="middle" x="1327" y="-99.8" font-family="Times,serif" font-size="14.00" fill="#000000">SharedModule</text>
</g>
<!-- TWidgetsModule -->
<g id="node6" class="node">
<title>TWidgetsModule</title>
<polygon fill="#8dd3c7" stroke="#000000" points="878.2577,-187 875.2577,-191 854.2577,-191 851.2577,-187 763.7423,-187 763.7423,-151 878.2577,-151 878.2577,-187"/>
<text text-anchor="middle" x="821" y="-164.8" font-family="Times,serif" font-size="14.00" fill="#000000">TWidgetsModule</text>
</g>
<!-- SharedModule&#45;&gt;TWidgetsModule -->
<g id="edge1" class="edge">
<title>SharedModule&#45;&gt;TWidgetsModule</title>
<path fill="none" stroke="#000000" d="M1327,-122.1289C1327,-142.5724 1327,-173 1327,-173 1327,-173 888.552,-173 888.552,-173"/>
<polygon fill="#000000" stroke="#000000" points="888.552,-169.5001 878.552,-173 888.552,-176.5001 888.552,-169.5001"/>
</g>
<!-- TwCollectionsModule -->
<g id="node2" class="node">
<title>TwCollectionsModule</title>
<polygon fill="#8dd3c7" stroke="#000000" points="1259.9818,-122 1256.9818,-126 1235.9818,-126 1232.9818,-122 1118.0182,-122 1118.0182,-86 1259.9818,-86 1259.9818,-122"/>
<text text-anchor="middle" x="1189" y="-99.8" font-family="Times,serif" font-size="14.00" fill="#000000">TwCollectionsModule</text>
</g>
<!-- TwCollectionsModule&#45;&gt;TWidgetsModule -->
<g id="edge2" class="edge">
<title>TwCollectionsModule&#45;&gt;TWidgetsModule</title>
<path fill="none" stroke="#000000" d="M1190.8659,-122.2667C1190.8659,-140.5552 1190.8659,-166 1190.8659,-166 1190.8659,-166 888.3857,-166 888.3857,-166"/>
<polygon fill="#000000" stroke="#000000" points="888.3858,-162.5001 878.3857,-166 888.3857,-169.5001 888.3858,-162.5001"/>
</g>
<!-- TwContentModule -->
<g id="node3" class="node">
<title>TwContentModule</title>
<polygon fill="#8dd3c7" stroke="#000000" points="1100.0423,-122 1097.0423,-126 1076.0423,-126 1073.0423,-122 977.9577,-122 977.9577,-86 1100.0423,-86 1100.0423,-122"/>
<text text-anchor="middle" x="1039" y="-99.8" font-family="Times,serif" font-size="14.00" fill="#000000">TwContentModule</text>
</g>
<!-- TwContentModule&#45;&gt;TWidgetsModule -->
<g id="edge3" class="edge">
<title>TwContentModule&#45;&gt;TWidgetsModule</title>
<path fill="none" stroke="#000000" d="M1059.4236,-122.0091C1059.4236,-138.0494 1059.4236,-159 1059.4236,-159 1059.4236,-159 888.4118,-159 888.4118,-159"/>
<polygon fill="#000000" stroke="#000000" points="888.4118,-155.5001 878.4118,-159 888.4118,-162.5001 888.4118,-155.5001"/>
</g>
<!-- TwTemplateModule -->
<g id="node4" class="node">
<title>TwTemplateModule</title>
<polygon fill="#8dd3c7" stroke="#000000" points="959.5772,-122 956.5772,-126 935.5772,-126 932.5772,-122 828.4228,-122 828.4228,-86 959.5772,-86 959.5772,-122"/>
<text text-anchor="middle" x="894" y="-99.8" font-family="Times,serif" font-size="14.00" fill="#000000">TwTemplateModule</text>
</g>
<!-- TwTemplateModule&#45;&gt;TWidgetsModule -->
<g id="edge4" class="edge">
<title>TwTemplateModule&#45;&gt;TWidgetsModule</title>
<path fill="none" stroke="#000000" d="M853.4201,-122.1061C853.4201,-122.1061 853.4201,-140.991 853.4201,-140.991"/>
<polygon fill="#000000" stroke="#000000" points="849.9201,-140.9909 853.4201,-150.991 856.9201,-140.991 849.9201,-140.9909"/>
</g>
<!-- TwToolbarModule -->
<g id="node5" class="node">
<title>TwToolbarModule</title>
<polygon fill="#8dd3c7" stroke="#000000" points="810.0283,-122 807.0283,-126 786.0283,-126 783.0283,-122 687.9717,-122 687.9717,-86 810.0283,-86 810.0283,-122"/>
<text text-anchor="middle" x="749" y="-99.8" font-family="Times,serif" font-size="14.00" fill="#000000">TwToolbarModule</text>
</g>
<!-- TwToolbarModule&#45;&gt;TWidgetsModule -->
<g id="edge5" class="edge">
<title>TwToolbarModule&#45;&gt;TWidgetsModule</title>
<path fill="none" stroke="#000000" d="M786.9425,-122.1061C786.9425,-122.1061 786.9425,-140.991 786.9425,-140.991"/>
<polygon fill="#000000" stroke="#000000" points="783.4426,-140.9909 786.9425,-150.991 790.4426,-140.991 783.4426,-140.9909"/>
</g>
<!-- TwCollectionsModule  -->
<g id="node7" class="node">
<title>TwCollectionsModule </title>
<polygon fill="#fb8072" stroke="#000000" points="1121.9826,-252 976.0174,-252 976.0174,-216 1121.9826,-216 1121.9826,-252"/>
<text text-anchor="middle" x="1049" y="-229.8" font-family="Times,serif" font-size="14.00" fill="#000000">TwCollectionsModule </text>
</g>
<!-- TWidgetsModule&#45;&gt;TwCollectionsModule  -->
<g id="edge6" class="edge">
<title>TWidgetsModule&#45;&gt;TwCollectionsModule </title>
<path fill="none" stroke="#000000" stroke-dasharray="5,2" d="M878.4127,-180C936.7477,-180 1018.5764,-180 1018.5764,-180 1018.5764,-180 1018.5764,-205.7181 1018.5764,-205.7181"/>
<polygon fill="#000000" stroke="#000000" points="1015.0765,-205.718 1018.5764,-215.7181 1022.0765,-205.7181 1015.0765,-205.718"/>
</g>
<!-- TwContentModule  -->
<g id="node8" class="node">
<title>TwContentModule </title>
<polygon fill="#fb8072" stroke="#000000" points="958.0414,-252 831.9586,-252 831.9586,-216 958.0414,-216 958.0414,-252"/>
<text text-anchor="middle" x="895" y="-229.8" font-family="Times,serif" font-size="14.00" fill="#000000">TwContentModule </text>
</g>
<!-- TWidgetsModule&#45;&gt;TwContentModule  -->
<g id="edge7" class="edge">
<title>TWidgetsModule&#45;&gt;TwContentModule </title>
<path fill="none" stroke="#000000" stroke-dasharray="5,2" d="M855.179,-187.1061C855.179,-187.1061 855.179,-205.991 855.179,-205.991"/>
<polygon fill="#000000" stroke="#000000" points="851.6791,-205.9909 855.179,-215.991 858.6791,-205.991 851.6791,-205.9909"/>
</g>
<!-- TwTemplateModule  -->
<g id="node9" class="node">
<title>TwTemplateModule </title>
<polygon fill="#fb8072" stroke="#000000" points="814.0779,-252 679.9221,-252 679.9221,-216 814.0779,-216 814.0779,-252"/>
<text text-anchor="middle" x="747" y="-229.8" font-family="Times,serif" font-size="14.00" fill="#000000">TwTemplateModule </text>
</g>
<!-- TWidgetsModule&#45;&gt;TwTemplateModule  -->
<g id="edge8" class="edge">
<title>TWidgetsModule&#45;&gt;TwTemplateModule </title>
<path fill="none" stroke="#000000" stroke-dasharray="5,2" d="M788.955,-187.1061C788.955,-187.1061 788.955,-205.991 788.955,-205.991"/>
<polygon fill="#000000" stroke="#000000" points="785.455,-205.9909 788.955,-215.991 792.455,-205.991 785.455,-205.9909"/>
</g>
<!-- TwToolbarModule  -->
<g id="node10" class="node">
<title>TwToolbarModule </title>
<polygon fill="#fb8072" stroke="#000000" points="662.0274,-252 535.9726,-252 535.9726,-216 662.0274,-216 662.0274,-252"/>
<text text-anchor="middle" x="599" y="-229.8" font-family="Times,serif" font-size="14.00" fill="#000000">TwToolbarModule </text>
</g>
<!-- TWidgetsModule&#45;&gt;TwToolbarModule  -->
<g id="edge9" class="edge">
<title>TWidgetsModule&#45;&gt;TwToolbarModule </title>
<path fill="none" stroke="#000000" stroke-dasharray="5,2" d="M763.6718,-180C704.263,-180 620.0046,-180 620.0046,-180 620.0046,-180 620.0046,-205.7181 620.0046,-205.7181"/>
<polygon fill="#000000" stroke="#000000" points="616.5047,-205.718 620.0046,-215.7181 623.5047,-205.7181 616.5047,-205.718"/>
</g>
<!-- DashboardService -->
<g id="node11" class="node">
<title>DashboardService</title>
<ellipse fill="#fdb462" stroke="#000000" cx="582" cy="-104" rx="81.6423" ry="18"/>
<text text-anchor="middle" x="582" y="-99.8" font-family="Times,serif" font-size="14.00" fill="#000000">DashboardService</text>
</g>
<!-- DashboardService&#45;&gt;TWidgetsModule -->
<g id="edge10" class="edge">
<title>DashboardService&#45;&gt;TWidgetsModule</title>
<path fill="none" stroke="#000000" d="M577.9954,-122.0091C577.9954,-138.0494 577.9954,-159 577.9954,-159 577.9954,-159 753.719,-159 753.719,-159"/>
<polygon fill="#000000" stroke="#000000" points="753.7191,-162.5001 763.719,-159 753.719,-155.5001 753.7191,-162.5001"/>
</g>
<!-- InteractionEventService -->
<g id="node12" class="node">
<title>InteractionEventService</title>
<ellipse fill="#fdb462" stroke="#000000" cx="378" cy="-104" rx="104.1898" ry="18"/>
<text text-anchor="middle" x="378" y="-99.8" font-family="Times,serif" font-size="14.00" fill="#000000">InteractionEventService</text>
</g>
<!-- InteractionEventService&#45;&gt;TWidgetsModule -->
<g id="edge11" class="edge">
<title>InteractionEventService&#45;&gt;TWidgetsModule</title>
<path fill="none" stroke="#000000" d="M378,-122.2667C378,-140.5552 378,-166 378,-166 378,-166 753.5396,-166 753.5396,-166"/>
<polygon fill="#000000" stroke="#000000" points="753.5397,-169.5001 763.5396,-166 753.5396,-162.5001 753.5397,-169.5001"/>
</g>
<!-- InteractionManagerService -->
<g id="node13" class="node">
<title>InteractionManagerService</title>
<ellipse fill="#fdb462" stroke="#000000" cx="140" cy="-104" rx="116.2682" ry="18"/>
<text text-anchor="middle" x="140" y="-99.8" font-family="Times,serif" font-size="14.00" fill="#000000">InteractionManagerService</text>
</g>
<!-- InteractionManagerService&#45;&gt;TWidgetsModule -->
<g id="edge12" class="edge">
<title>InteractionManagerService&#45;&gt;TWidgetsModule</title>
<path fill="none" stroke="#000000" d="M140,-122.1289C140,-142.5724 140,-173 140,-173 140,-173 753.5252,-173 753.5252,-173"/>
<polygon fill="#000000" stroke="#000000" points="753.5253,-176.5001 763.5252,-173 753.5252,-169.5001 753.5253,-176.5001"/>
</g>
</g>
</svg>
