<?xml version="1.0" encoding="UTF-8" standalone="no"?>
<!DOCTYPE svg PUBLIC "-//W3C//DTD SVG 1.1//EN"
 "http://www.w3.org/Graphics/SVG/1.1/DTD/svg11.dtd">
<!-- Generated by graphviz version 2.40.1 (20161225.0304)
 -->
<!-- Title: dependencies Pages: 1 -->
<svg width="504pt" height="284pt"
 viewBox="0.00 0.00 504.00 284.00" xmlns="http://www.w3.org/2000/svg" xmlns:xlink="http://www.w3.org/1999/xlink">
<g id="graph0" class="graph" transform="scale(1 1) rotate(0) translate(4 280)">
<title>dependencies</title>
<polygon fill="#ffffff" stroke="transparent" points="-4,4 -4,-280 500,-280 500,4 -4,4"/>
<text text-anchor="start" x="227.0091" y="-42.4" font-family="sans-serif" font-weight="bold" font-size="14.00" fill="#000000">Legend</text>
<polygon fill="#ffffb3" stroke="transparent" points="14,-10 14,-30 34,-30 34,-10 14,-10"/>
<text text-anchor="start" x="37.629" y="-15.4" font-family="sans-serif" font-size="14.00" fill="#000000"> &#160;Declarations</text>
<polygon fill="#8dd3c7" stroke="transparent" points="127,-10 127,-30 147,-30 147,-10 127,-10"/>
<text text-anchor="start" x="150.7251" y="-15.4" font-family="sans-serif" font-size="14.00" fill="#000000"> &#160;Module</text>
<polygon fill="#80b1d3" stroke="transparent" points="213,-10 213,-30 233,-30 233,-10 213,-10"/>
<text text-anchor="start" x="236.7812" y="-15.4" font-family="sans-serif" font-size="14.00" fill="#000000"> &#160;Bootstrap</text>
<polygon fill="#fdb462" stroke="transparent" points="310,-10 310,-30 330,-30 330,-10 310,-10"/>
<text text-anchor="start" x="333.6732" y="-15.4" font-family="sans-serif" font-size="14.00" fill="#000000"> &#160;Providers</text>
<polygon fill="#fb8072" stroke="transparent" points="406,-10 406,-30 426,-30 426,-10 406,-10"/>
<text text-anchor="start" x="429.7258" y="-15.4" font-family="sans-serif" font-size="14.00" fill="#000000"> &#160;Exports</text>
<g id="clust1" class="cluster">
<title>cluster_TwTemplateModule</title>
<polygon fill="none" stroke="#000000" stroke-dasharray="1,5" points="16,-70 16,-268 480,-268 480,-70 16,-70"/>
</g>
<g id="clust2" class="cluster">
<title>cluster_TwTemplateModule_declarations</title>
<polygon fill="none" stroke="#000000" points="146,-78 146,-130 472,-130 472,-78 146,-78"/>
</g>
<g id="clust5" class="cluster">
<title>cluster_TwTemplateModule_imports</title>
<polygon fill="none" stroke="#000000" points="24,-78 24,-130 138,-130 138,-78 24,-78"/>
</g>
<g id="clust6" class="cluster">
<title>cluster_TwTemplateModule_exports</title>
<polygon fill="none" stroke="#000000" points="81,-208 81,-260 415,-260 415,-208 81,-208"/>
</g>
<!-- TwTemplateComponent -->
<g id="node1" class="node">
<title>TwTemplateComponent</title>
<polygon fill="#ffffb3" stroke="#000000" points="464.3599,-122 311.6401,-122 311.6401,-86 464.3599,-86 464.3599,-122"/>
<text text-anchor="middle" x="388" y="-99.8" font-family="Times,serif" font-size="14.00" fill="#000000">TwTemplateComponent</text>
</g>
<!-- TwTemplateModule -->
<g id="node3" class="node">
<title>TwTemplateModule</title>
<polygon fill="#8dd3c7" stroke="#000000" points="289.5772,-187 286.5772,-191 265.5772,-191 262.5772,-187 158.4228,-187 158.4228,-151 289.5772,-151 289.5772,-187"/>
<text text-anchor="middle" x="224" y="-164.8" font-family="Times,serif" font-size="14.00" fill="#000000">TwTemplateModule</text>
</g>
<!-- TwTemplateComponent&#45;&gt;TwTemplateModule -->
<g id="edge1" class="edge">
<title>TwTemplateComponent&#45;&gt;TwTemplateModule</title>
<path fill="none" stroke="#000000" d="M359.375,-122.1061C359.375,-141.3391 359.375,-169 359.375,-169 359.375,-169 299.7047,-169 299.7047,-169"/>
<polygon fill="#000000" stroke="#000000" points="299.7048,-165.5001 289.7047,-169 299.7047,-172.5001 299.7048,-165.5001"/>
</g>
<!-- TwTemplateDirective -->
<g id="node2" class="node">
<title>TwTemplateDirective</title>
<polygon fill="#ffffb3" stroke="#000000" points="293.6107,-122 154.3893,-122 154.3893,-86 293.6107,-86 293.6107,-122"/>
<text text-anchor="middle" x="224" y="-99.8" font-family="Times,serif" font-size="14.00" fill="#000000">TwTemplateDirective</text>
</g>
<!-- TwTemplateDirective&#45;&gt;TwTemplateModule -->
<g id="edge2" class="edge">
<title>TwTemplateDirective&#45;&gt;TwTemplateModule</title>
<path fill="none" stroke="#000000" d="M224,-122.1061C224,-122.1061 224,-140.991 224,-140.991"/>
<polygon fill="#000000" stroke="#000000" points="220.5001,-140.9909 224,-150.991 227.5001,-140.991 220.5001,-140.9909"/>
</g>
<!-- TwTemplateComponent  -->
<g id="node5" class="node">
<title>TwTemplateComponent </title>
<polygon fill="#fb8072" stroke="#000000" points="407.3602,-252 250.6398,-252 250.6398,-216 407.3602,-216 407.3602,-252"/>
<text text-anchor="middle" x="329" y="-229.8" font-family="Times,serif" font-size="14.00" fill="#000000">TwTemplateComponent </text>
</g>
<!-- TwTemplateModule&#45;&gt;TwTemplateComponent  -->
<g id="edge4" class="edge">
<title>TwTemplateModule&#45;&gt;TwTemplateComponent </title>
<path fill="none" stroke="#000000" stroke-dasharray="5,2" d="M270.1794,-187.1061C270.1794,-187.1061 270.1794,-205.991 270.1794,-205.991"/>
<polygon fill="#000000" stroke="#000000" points="266.6794,-205.9909 270.1794,-215.991 273.6794,-205.991 266.6794,-205.9909"/>
</g>
<!-- TwTemplateDirective  -->
<g id="node6" class="node">
<title>TwTemplateDirective </title>
<polygon fill="#fb8072" stroke="#000000" points="232.6102,-252 89.3898,-252 89.3898,-216 232.6102,-216 232.6102,-252"/>
<text text-anchor="middle" x="161" y="-229.8" font-family="Times,serif" font-size="14.00" fill="#000000">TwTemplateDirective </text>
</g>
<!-- TwTemplateModule&#45;&gt;TwTemplateDirective  -->
<g id="edge5" class="edge">
<title>TwTemplateModule&#45;&gt;TwTemplateDirective </title>
<path fill="none" stroke="#000000" stroke-dasharray="5,2" d="M195.5082,-187.1061C195.5082,-187.1061 195.5082,-205.991 195.5082,-205.991"/>
<polygon fill="#000000" stroke="#000000" points="192.0083,-205.9909 195.5082,-215.991 199.0083,-205.991 192.0083,-205.9909"/>
</g>
<!-- SharedModule -->
<g id="node4" class="node">
<title>SharedModule</title>
<polygon fill="#8dd3c7" stroke="#000000" points="130.4231,-122 127.4231,-126 106.4231,-126 103.4231,-122 31.5769,-122 31.5769,-86 130.4231,-86 130.4231,-122"/>
<text text-anchor="middle" x="81" y="-99.8" font-family="Times,serif" font-size="14.00" fill="#000000">SharedModule</text>
</g>
<!-- SharedModule&#45;&gt;TwTemplateModule -->
<g id="edge3" class="edge">
<title>SharedModule&#45;&gt;TwTemplateModule</title>
<path fill="none" stroke="#000000" d="M109.828,-122.1061C109.828,-141.3391 109.828,-169 109.828,-169 109.828,-169 148.2472,-169 148.2472,-169"/>
<polygon fill="#000000" stroke="#000000" points="148.2472,-172.5001 158.2472,-169 148.2472,-165.5001 148.2472,-172.5001"/>
</g>
</g>
</svg>
