<?xml version="1.0" encoding="UTF-8" standalone="no"?>
<!DOCTYPE svg PUBLIC "-//W3C//DTD SVG 1.1//EN"
 "http://www.w3.org/Graphics/SVG/1.1/DTD/svg11.dtd">
<!-- Generated by graphviz version 2.40.1 (20161225.0304)
 -->
<!-- Title: dependencies Pages: 1 -->
<svg width="2118pt" height="284pt"
 viewBox="0.00 0.00 2118.00 284.00" xmlns="http://www.w3.org/2000/svg" xmlns:xlink="http://www.w3.org/1999/xlink">
<g id="graph0" class="graph" transform="scale(1 1) rotate(0) translate(4 280)">
<title>dependencies</title>
<polygon fill="#ffffff" stroke="transparent" points="-4,4 -4,-280 2114,-280 2114,4 -4,4"/>
<text text-anchor="start" x="1034.0091" y="-42.4" font-family="sans-serif" font-weight="bold" font-size="14.00" fill="#000000">Legend</text>
<polygon fill="#ffffb3" stroke="transparent" points="821,-10 821,-30 841,-30 841,-10 821,-10"/>
<text text-anchor="start" x="844.629" y="-15.4" font-family="sans-serif" font-size="14.00" fill="#000000"> &#160;Declarations</text>
<polygon fill="#8dd3c7" stroke="transparent" points="934,-10 934,-30 954,-30 954,-10 934,-10"/>
<text text-anchor="start" x="957.7251" y="-15.4" font-family="sans-serif" font-size="14.00" fill="#000000"> &#160;Module</text>
<polygon fill="#80b1d3" stroke="transparent" points="1020,-10 1020,-30 1040,-30 1040,-10 1020,-10"/>
<text text-anchor="start" x="1043.7812" y="-15.4" font-family="sans-serif" font-size="14.00" fill="#000000"> &#160;Bootstrap</text>
<polygon fill="#fdb462" stroke="transparent" points="1117,-10 1117,-30 1137,-30 1137,-10 1117,-10"/>
<text text-anchor="start" x="1140.6732" y="-15.4" font-family="sans-serif" font-size="14.00" fill="#000000"> &#160;Providers</text>
<polygon fill="#fb8072" stroke="transparent" points="1213,-10 1213,-30 1233,-30 1233,-10 1213,-10"/>
<text text-anchor="start" x="1236.7258" y="-15.4" font-family="sans-serif" font-size="14.00" fill="#000000"> &#160;Exports</text>
<g id="clust1" class="cluster">
<title>cluster_AppModule</title>
<polygon fill="none" stroke="#000000" stroke-dasharray="1,5" points="8,-70 8,-268 2102,-268 2102,-70 8,-70"/>
</g>
<g id="clust2" class="cluster">
<title>cluster_AppModule_declarations</title>
<polygon fill="none" stroke="#000000" points="1972,-78 1972,-130 2094,-130 2094,-78 1972,-78"/>
</g>
<g id="clust4" class="cluster">
<title>cluster_AppModule_imports</title>
<polygon fill="none" stroke="#000000" points="845,-78 845,-130 1964,-130 1964,-78 845,-78"/>
</g>
<g id="clust6" class="cluster">
<title>cluster_AppModule_bootstrap</title>
<polygon fill="none" stroke="#000000" points="1159,-208 1159,-260 1283,-260 1283,-208 1159,-208"/>
</g>
<g id="clust7" class="cluster">
<title>cluster_AppModule_providers</title>
<polygon fill="none" stroke="#000000" points="16,-78 16,-130 837,-130 837,-78 16,-78"/>
</g>
<!-- AppComponent -->
<g id="node1" class="node">
<title>AppComponent</title>
<polygon fill="#ffffb3" stroke="#000000" points="2085.9399,-122 1980.0601,-122 1980.0601,-86 2085.9399,-86 2085.9399,-122"/>
<text text-anchor="middle" x="2033" y="-99.8" font-family="Times,serif" font-size="14.00" fill="#000000">AppComponent</text>
</g>
<!-- AppModule -->
<g id="node2" class="node">
<title>AppModule</title>
<polygon fill="#8dd3c7" stroke="#000000" points="1262.6571,-187 1259.6571,-191 1238.6571,-191 1235.6571,-187 1179.3429,-187 1179.3429,-151 1262.6571,-151 1262.6571,-187"/>
<text text-anchor="middle" x="1221" y="-164.8" font-family="Times,serif" font-size="14.00" fill="#000000">AppModule</text>
</g>
<!-- AppComponent&#45;&gt;AppModule -->
<g id="edge1" class="edge">
<title>AppComponent&#45;&gt;AppModule</title>
<path fill="none" stroke="#000000" d="M2033,-122.0908C2033,-145.1328 2033,-182 2033,-182 2033,-182 1272.6647,-182 1272.6647,-182"/>
<polygon fill="#000000" stroke="#000000" points="1272.6648,-178.5001 1262.6647,-182 1272.6647,-185.5001 1272.6648,-178.5001"/>
</g>
<!-- AppComponent  -->
<g id="node11" class="node">
<title>AppComponent </title>
<polygon fill="#80b1d3" stroke="#000000" points="1275.439,-252 1166.561,-252 1166.561,-216 1275.439,-216 1275.439,-252"/>
<text text-anchor="middle" x="1221" y="-229.8" font-family="Times,serif" font-size="14.00" fill="#000000">AppComponent </text>
</g>
<!-- AppModule&#45;&gt;AppComponent  -->
<g id="edge10" class="edge">
<title>AppModule&#45;&gt;AppComponent </title>
<path fill="none" stroke="#000000" stroke-dasharray="1,5" d="M1221,-187.1061C1221,-187.1061 1221,-205.991 1221,-205.991"/>
<polygon fill="#000000" stroke="#000000" points="1217.5001,-205.9909 1221,-215.991 1224.5001,-205.991 1217.5001,-205.9909"/>
</g>
<!-- AppRoutingModule -->
<g id="node3" class="node">
<title>AppRoutingModule</title>
<polygon fill="#8dd3c7" stroke="#000000" points="1956.2744,-122 1953.2744,-126 1932.2744,-126 1929.2744,-122 1827.7256,-122 1827.7256,-86 1956.2744,-86 1956.2744,-122"/>
<text text-anchor="middle" x="1892" y="-99.8" font-family="Times,serif" font-size="14.00" fill="#000000">AppRoutingModule</text>
</g>
<!-- AppRoutingModule&#45;&gt;AppModule -->
<g id="edge2" class="edge">
<title>AppRoutingModule&#45;&gt;AppModule</title>
<path fill="none" stroke="#000000" d="M1892,-122.0449C1892,-143.6623 1892,-177 1892,-177 1892,-177 1272.7205,-177 1272.7205,-177"/>
<polygon fill="#000000" stroke="#000000" points="1272.7206,-173.5001 1262.7205,-177 1272.7205,-180.5001 1272.7206,-173.5001"/>
</g>
<!-- CoreModule -->
<g id="node4" class="node">
<title>CoreModule</title>
<polygon fill="#8dd3c7" stroke="#000000" points="1809.2619,-122 1806.2619,-126 1785.2619,-126 1782.2619,-122 1722.7381,-122 1722.7381,-86 1809.2619,-86 1809.2619,-122"/>
<text text-anchor="middle" x="1766" y="-99.8" font-family="Times,serif" font-size="14.00" fill="#000000">CoreModule</text>
</g>
<!-- CoreModule&#45;&gt;AppModule -->
<g id="edge3" class="edge">
<title>CoreModule&#45;&gt;AppModule</title>
<path fill="none" stroke="#000000" d="M1766,-122.2228C1766,-142.3652 1766,-172 1766,-172 1766,-172 1272.8603,-172 1272.8603,-172"/>
<polygon fill="#000000" stroke="#000000" points="1272.8603,-168.5001 1262.8603,-172 1272.8603,-175.5001 1272.8603,-168.5001"/>
</g>
<!-- FuseModule -->
<g id="node5" class="node">
<title>FuseModule</title>
<polygon fill="#8dd3c7" stroke="#000000" points="1704.9916,-122 1701.9916,-126 1680.9916,-126 1677.9916,-122 1619.0084,-122 1619.0084,-86 1704.9916,-86 1704.9916,-122"/>
<text text-anchor="middle" x="1662" y="-99.8" font-family="Times,serif" font-size="14.00" fill="#000000">FuseModule</text>
</g>
<!-- FuseModule&#45;&gt;AppModule -->
<g id="edge4" class="edge">
<title>FuseModule&#45;&gt;AppModule</title>
<path fill="none" stroke="#000000" d="M1662,-122.2222C1662,-140.8285 1662,-167 1662,-167 1662,-167 1272.8858,-167 1272.8858,-167"/>
<polygon fill="#000000" stroke="#000000" points="1272.8858,-163.5001 1262.8858,-167 1272.8858,-170.5001 1272.8858,-163.5001"/>
</g>
<!-- FuseProgressBarModule -->
<g id="node6" class="node">
<title>FuseProgressBarModule</title>
<polygon fill="#8dd3c7" stroke="#000000" points="1601.4115,-122 1598.4115,-126 1577.4115,-126 1574.4115,-122 1446.5885,-122 1446.5885,-86 1601.4115,-86 1601.4115,-122"/>
<text text-anchor="middle" x="1524" y="-99.8" font-family="Times,serif" font-size="14.00" fill="#000000">FuseProgressBarModule</text>
</g>
<!-- FuseProgressBarModule&#45;&gt;AppModule -->
<g id="edge5" class="edge">
<title>FuseProgressBarModule&#45;&gt;AppModule</title>
<path fill="none" stroke="#000000" d="M1524,-122.0336C1524,-139.0597 1524,-162 1524,-162 1524,-162 1272.8127,-162 1272.8127,-162"/>
<polygon fill="#000000" stroke="#000000" points="1272.8128,-158.5001 1262.8127,-162 1272.8127,-165.5001 1272.8128,-158.5001"/>
</g>
<!-- FuseSharedModule -->
<g id="node7" class="node">
<title>FuseSharedModule</title>
<polygon fill="#8dd3c7" stroke="#000000" points="1428.3641,-122 1425.3641,-126 1404.3641,-126 1401.3641,-122 1303.6359,-122 1303.6359,-86 1428.3641,-86 1428.3641,-122"/>
<text text-anchor="middle" x="1366" y="-99.8" font-family="Times,serif" font-size="14.00" fill="#000000">FuseSharedModule</text>
</g>
<!-- FuseSharedModule&#45;&gt;AppModule -->
<g id="edge6" class="edge">
<title>FuseSharedModule&#45;&gt;AppModule</title>
<path fill="none" stroke="#000000" d="M1366,-122.2396C1366,-137.5706 1366,-157 1366,-157 1366,-157 1272.94,-157 1272.94,-157"/>
<polygon fill="#000000" stroke="#000000" points="1272.94,-153.5001 1262.94,-157 1272.94,-160.5001 1272.94,-153.5001"/>
</g>
<!-- FuseSidebarModule -->
<g id="node8" class="node">
<title>FuseSidebarModule</title>
<polygon fill="#8dd3c7" stroke="#000000" points="1285.2548,-122 1282.2548,-126 1261.2548,-126 1258.2548,-122 1156.7452,-122 1156.7452,-86 1285.2548,-86 1285.2548,-122"/>
<text text-anchor="middle" x="1221" y="-99.8" font-family="Times,serif" font-size="14.00" fill="#000000">FuseSidebarModule</text>
</g>
<!-- FuseSidebarModule&#45;&gt;AppModule -->
<g id="edge7" class="edge">
<title>FuseSidebarModule&#45;&gt;AppModule</title>
<path fill="none" stroke="#000000" d="M1221,-122.1061C1221,-122.1061 1221,-140.991 1221,-140.991"/>
<polygon fill="#000000" stroke="#000000" points="1217.5001,-140.9909 1221,-150.991 1224.5001,-140.991 1217.5001,-140.9909"/>
</g>
<!-- FuseThemeOptionsModule -->
<g id="node9" class="node">
<title>FuseThemeOptionsModule</title>
<polygon fill="#8dd3c7" stroke="#000000" points="1138.6965,-122 1135.6965,-126 1114.6965,-126 1111.6965,-122 969.3035,-122 969.3035,-86 1138.6965,-86 1138.6965,-122"/>
<text text-anchor="middle" x="1054" y="-99.8" font-family="Times,serif" font-size="14.00" fill="#000000">FuseThemeOptionsModule</text>
</g>
<!-- FuseThemeOptionsModule&#45;&gt;AppModule -->
<g id="edge8" class="edge">
<title>FuseThemeOptionsModule&#45;&gt;AppModule</title>
<path fill="none" stroke="#000000" d="M1054,-122.2396C1054,-137.5706 1054,-157 1054,-157 1054,-157 1169.2896,-157 1169.2896,-157"/>
<polygon fill="#000000" stroke="#000000" points="1169.2897,-160.5001 1179.2896,-157 1169.2896,-153.5001 1169.2897,-160.5001"/>
</g>
<!-- SharedModule -->
<g id="node10" class="node">
<title>SharedModule</title>
<polygon fill="#8dd3c7" stroke="#000000" points="951.4231,-122 948.4231,-126 927.4231,-126 924.4231,-122 852.5769,-122 852.5769,-86 951.4231,-86 951.4231,-122"/>
<text text-anchor="middle" x="902" y="-99.8" font-family="Times,serif" font-size="14.00" fill="#000000">SharedModule</text>
</g>
<!-- SharedModule&#45;&gt;AppModule -->
<g id="edge9" class="edge">
<title>SharedModule&#45;&gt;AppModule</title>
<path fill="none" stroke="#000000" d="M902,-122.0336C902,-139.0597 902,-162 902,-162 902,-162 1169.2963,-162 1169.2963,-162"/>
<polygon fill="#000000" stroke="#000000" points="1169.2964,-165.5001 1179.2963,-162 1169.2963,-158.5001 1169.2964,-165.5001"/>
</g>
<!-- AOTWidgetService -->
<g id="node12" class="node">
<title>AOTWidgetService</title>
<ellipse fill="#fdb462" stroke="#000000" cx="741" cy="-104" rx="88.021" ry="18"/>
<text text-anchor="middle" x="741" y="-99.8" font-family="Times,serif" font-size="14.00" fill="#000000">AOTWidgetService</text>
</g>
<!-- AOTWidgetService&#45;&gt;AppModule -->
<g id="edge11" class="edge">
<title>AOTWidgetService&#45;&gt;AppModule</title>
<path fill="none" stroke="#000000" d="M741,-122.2222C741,-140.8285 741,-167 741,-167 741,-167 1169.2428,-167 1169.2428,-167"/>
<polygon fill="#000000" stroke="#000000" points="1169.2429,-170.5001 1179.2428,-167 1169.2428,-163.5001 1169.2429,-170.5001"/>
</g>
<!-- AgentFeaturesService -->
<g id="node13" class="node">
<title>AgentFeaturesService</title>
<ellipse fill="#fdb462" stroke="#000000" cx="538" cy="-104" rx="96.1035" ry="18"/>
<text text-anchor="middle" x="538" y="-99.8" font-family="Times,serif" font-size="14.00" fill="#000000">AgentFeaturesService</text>
</g>
<!-- AgentFeaturesService&#45;&gt;AppModule -->
<g id="edge12" class="edge">
<title>AgentFeaturesService&#45;&gt;AppModule</title>
<path fill="none" stroke="#000000" d="M538,-122.2228C538,-142.3652 538,-172 538,-172 538,-172 1169.3034,-172 1169.3034,-172"/>
<polygon fill="#000000" stroke="#000000" points="1169.3035,-175.5001 1179.3034,-172 1169.3034,-168.5001 1169.3035,-175.5001"/>
</g>
<!-- AppDataService -->
<g id="node14" class="node">
<title>AppDataService</title>
<ellipse fill="#fdb462" stroke="#000000" cx="349" cy="-104" rx="74.6976" ry="18"/>
<text text-anchor="middle" x="349" y="-99.8" font-family="Times,serif" font-size="14.00" fill="#000000">AppDataService</text>
</g>
<!-- AppDataService&#45;&gt;AppModule -->
<g id="edge13" class="edge">
<title>AppDataService&#45;&gt;AppModule</title>
<path fill="none" stroke="#000000" d="M349,-122.0449C349,-143.6623 349,-177 349,-177 349,-177 1169.2354,-177 1169.2354,-177"/>
<polygon fill="#000000" stroke="#000000" points="1169.2354,-180.5001 1179.2354,-177 1169.2354,-173.5001 1169.2354,-180.5001"/>
</g>
<!-- InteractionManagerService -->
<g id="node15" class="node">
<title>InteractionManagerService</title>
<ellipse fill="#fdb462" stroke="#000000" cx="140" cy="-104" rx="116.2682" ry="18"/>
<text text-anchor="middle" x="140" y="-99.8" font-family="Times,serif" font-size="14.00" fill="#000000">InteractionManagerService</text>
</g>
<!-- InteractionManagerService&#45;&gt;AppModule -->
<g id="edge14" class="edge">
<title>InteractionManagerService&#45;&gt;AppModule</title>
<path fill="none" stroke="#000000" d="M140,-122.0908C140,-145.1328 140,-182 140,-182 140,-182 1169.2859,-182 1169.2859,-182"/>
<polygon fill="#000000" stroke="#000000" points="1169.2859,-185.5001 1179.2859,-182 1169.2859,-178.5001 1169.2859,-185.5001"/>
</g>
</g>
</svg>
