<?xml version="1.0" encoding="UTF-8" standalone="no"?>
<!DOCTYPE svg PUBLIC "-//W3C//DTD SVG 1.1//EN"
 "http://www.w3.org/Graphics/SVG/1.1/DTD/svg11.dtd">
<!-- Generated by graphviz version 2.40.1 (20161225.0304)
 -->
<!-- Title: dependencies Pages: 1 -->
<svg width="1866pt" height="284pt"
 viewBox="0.00 0.00 1866.00 284.00" xmlns="http://www.w3.org/2000/svg" xmlns:xlink="http://www.w3.org/1999/xlink">
<g id="graph0" class="graph" transform="scale(1 1) rotate(0) translate(4 280)">
<title>dependencies</title>
<polygon fill="#ffffff" stroke="transparent" points="-4,4 -4,-280 1862,-280 1862,4 -4,4"/>
<text text-anchor="start" x="908.0091" y="-42.4" font-family="sans-serif" font-weight="bold" font-size="14.00" fill="#000000">Legend</text>
<polygon fill="#ffffb3" stroke="transparent" points="695,-10 695,-30 715,-30 715,-10 695,-10"/>
<text text-anchor="start" x="718.629" y="-15.4" font-family="sans-serif" font-size="14.00" fill="#000000"> &#160;Declarations</text>
<polygon fill="#8dd3c7" stroke="transparent" points="808,-10 808,-30 828,-30 828,-10 808,-10"/>
<text text-anchor="start" x="831.7251" y="-15.4" font-family="sans-serif" font-size="14.00" fill="#000000"> &#160;Module</text>
<polygon fill="#80b1d3" stroke="transparent" points="894,-10 894,-30 914,-30 914,-10 894,-10"/>
<text text-anchor="start" x="917.7812" y="-15.4" font-family="sans-serif" font-size="14.00" fill="#000000"> &#160;Bootstrap</text>
<polygon fill="#fdb462" stroke="transparent" points="991,-10 991,-30 1011,-30 1011,-10 991,-10"/>
<text text-anchor="start" x="1014.6732" y="-15.4" font-family="sans-serif" font-size="14.00" fill="#000000"> &#160;Providers</text>
<polygon fill="#fb8072" stroke="transparent" points="1087,-10 1087,-30 1107,-30 1107,-10 1087,-10"/>
<text text-anchor="start" x="1110.7258" y="-15.4" font-family="sans-serif" font-size="14.00" fill="#000000"> &#160;Exports</text>
<g id="clust1" class="cluster">
<title>cluster_TwContentModule</title>
<polygon fill="none" stroke="#000000" stroke-dasharray="1,5" points="8,-70 8,-268 1850,-268 1850,-70 8,-70"/>
</g>
<g id="clust2" class="cluster">
<title>cluster_TwContentModule_declarations</title>
<polygon fill="none" stroke="#000000" points="433,-78 433,-130 1842,-130 1842,-78 433,-78"/>
</g>
<g id="clust11" class="cluster">
<title>cluster_TwContentModule_imports</title>
<polygon fill="none" stroke="#000000" points="16,-78 16,-130 425,-130 425,-78 16,-78"/>
</g>
<g id="clust12" class="cluster">
<title>cluster_TwContentModule_exports</title>
<polygon fill="none" stroke="#000000" points="761,-208 761,-260 951,-260 951,-208 761,-208"/>
</g>
<!-- TwcCustomComponent -->
<g id="node1" class="node">
<title>TwcCustomComponent</title>
<polygon fill="#ffffb3" stroke="#000000" points="1833.7688,-122 1684.2312,-122 1684.2312,-86 1833.7688,-86 1833.7688,-122"/>
<text text-anchor="middle" x="1759" y="-99.8" font-family="Times,serif" font-size="14.00" fill="#000000">TwcCustomComponent</text>
</g>
<!-- TwContentModule -->
<g id="node9" class="node">
<title>TwContentModule</title>
<polygon fill="#8dd3c7" stroke="#000000" points="917.0423,-187 914.0423,-191 893.0423,-191 890.0423,-187 794.9577,-187 794.9577,-151 917.0423,-151 917.0423,-187"/>
<text text-anchor="middle" x="856" y="-164.8" font-family="Times,serif" font-size="14.00" fill="#000000">TwContentModule</text>
</g>
<!-- TwcCustomComponent&#45;&gt;TwContentModule -->
<g id="edge1" class="edge">
<title>TwcCustomComponent&#45;&gt;TwContentModule</title>
<path fill="none" stroke="#000000" d="M1759,-122.2479C1759,-145.0179 1759,-181 1759,-181 1759,-181 927.3569,-181 927.3569,-181"/>
<polygon fill="#000000" stroke="#000000" points="927.357,-177.5001 917.3569,-181 927.3569,-184.5001 927.357,-177.5001"/>
</g>
<!-- TwcHomeComponent -->
<g id="node2" class="node">
<title>TwcHomeComponent</title>
<polygon fill="#ffffb3" stroke="#000000" points="1666.4186,-122 1525.5814,-122 1525.5814,-86 1666.4186,-86 1666.4186,-122"/>
<text text-anchor="middle" x="1596" y="-99.8" font-family="Times,serif" font-size="14.00" fill="#000000">TwcHomeComponent</text>
</g>
<!-- TwcHomeComponent&#45;&gt;TwContentModule -->
<g id="edge2" class="edge">
<title>TwcHomeComponent&#45;&gt;TwContentModule</title>
<path fill="none" stroke="#000000" d="M1596,-122.2843C1596,-143.3211 1596,-175 1596,-175 1596,-175 927.1869,-175 927.1869,-175"/>
<polygon fill="#000000" stroke="#000000" points="927.1869,-171.5001 917.1869,-175 927.1868,-178.5001 927.1869,-171.5001"/>
</g>
<!-- TwcNoInteractionComponent -->
<g id="node3" class="node">
<title>TwcNoInteractionComponent</title>
<polygon fill="#ffffb3" stroke="#000000" points="1507.9496,-122 1324.0504,-122 1324.0504,-86 1507.9496,-86 1507.9496,-122"/>
<text text-anchor="middle" x="1416" y="-99.8" font-family="Times,serif" font-size="14.00" fill="#000000">TwcNoInteractionComponent</text>
</g>
<!-- TwcNoInteractionComponent&#45;&gt;TwContentModule -->
<g id="edge3" class="edge">
<title>TwcNoInteractionComponent&#45;&gt;TwContentModule</title>
<path fill="none" stroke="#000000" d="M1416,-122.1061C1416,-141.3391 1416,-169 1416,-169 1416,-169 927.2635,-169 927.2635,-169"/>
<polygon fill="#000000" stroke="#000000" points="927.2636,-165.5001 917.2635,-169 927.2635,-172.5001 927.2636,-165.5001"/>
</g>
<!-- TwcNoWidgetsComponent -->
<g id="node4" class="node">
<title>TwcNoWidgetsComponent</title>
<polygon fill="#ffffb3" stroke="#000000" points="1305.9678,-122 1136.0322,-122 1136.0322,-86 1305.9678,-86 1305.9678,-122"/>
<text text-anchor="middle" x="1221" y="-99.8" font-family="Times,serif" font-size="14.00" fill="#000000">TwcNoWidgetsComponent</text>
</g>
<!-- TwcNoWidgetsComponent&#45;&gt;TwContentModule -->
<g id="edge4" class="edge">
<title>TwcNoWidgetsComponent&#45;&gt;TwContentModule</title>
<path fill="none" stroke="#000000" d="M1221,-122.0225C1221,-139.3734 1221,-163 1221,-163 1221,-163 927.0928,-163 927.0928,-163"/>
<polygon fill="#000000" stroke="#000000" points="927.0928,-159.5001 917.0928,-163 927.0928,-166.5001 927.0928,-159.5001"/>
</g>
<!-- TwcSupervisorComponent -->
<g id="node5" class="node">
<title>TwcSupervisorComponent</title>
<polygon fill="#ffffb3" stroke="#000000" points="1118.3599,-122 951.6401,-122 951.6401,-86 1118.3599,-86 1118.3599,-122"/>
<text text-anchor="middle" x="1035" y="-99.8" font-family="Times,serif" font-size="14.00" fill="#000000">TwcSupervisorComponent</text>
</g>
<!-- TwcSupervisorComponent&#45;&gt;TwContentModule -->
<g id="edge5" class="edge">
<title>TwcSupervisorComponent&#45;&gt;TwContentModule</title>
<path fill="none" stroke="#000000" d="M1035,-122.2396C1035,-137.5706 1035,-157 1035,-157 1035,-157 927.101,-157 927.101,-157"/>
<polygon fill="#000000" stroke="#000000" points="927.101,-153.5001 917.101,-157 927.101,-160.5001 927.101,-153.5001"/>
</g>
<!-- TwcTextchatComponent -->
<g id="node6" class="node">
<title>TwcTextchatComponent</title>
<polygon fill="#ffffb3" stroke="#000000" points="933.6839,-122 778.3161,-122 778.3161,-86 933.6839,-86 933.6839,-122"/>
<text text-anchor="middle" x="856" y="-99.8" font-family="Times,serif" font-size="14.00" fill="#000000">TwcTextchatComponent</text>
</g>
<!-- TwcTextchatComponent&#45;&gt;TwContentModule -->
<g id="edge6" class="edge">
<title>TwcTextchatComponent&#45;&gt;TwContentModule</title>
<path fill="none" stroke="#000000" d="M856,-122.1061C856,-122.1061 856,-140.991 856,-140.991"/>
<polygon fill="#000000" stroke="#000000" points="852.5001,-140.9909 856,-150.991 859.5001,-140.991 852.5001,-140.9909"/>
</g>
<!-- TwcUnknownComponent -->
<g id="node7" class="node">
<title>TwcUnknownComponent</title>
<polygon fill="#ffffb3" stroke="#000000" points="760.9199,-122 599.0801,-122 599.0801,-86 760.9199,-86 760.9199,-122"/>
<text text-anchor="middle" x="680" y="-99.8" font-family="Times,serif" font-size="14.00" fill="#000000">TwcUnknownComponent</text>
</g>
<!-- TwcUnknownComponent&#45;&gt;TwContentModule -->
<g id="edge7" class="edge">
<title>TwcUnknownComponent&#45;&gt;TwContentModule</title>
<path fill="none" stroke="#000000" d="M680,-122.2396C680,-137.5706 680,-157 680,-157 680,-157 784.9377,-157 784.9377,-157"/>
<polygon fill="#000000" stroke="#000000" points="784.9377,-160.5001 794.9377,-157 784.9376,-153.5001 784.9377,-160.5001"/>
</g>
<!-- TwcVoiceComponent -->
<g id="node8" class="node">
<title>TwcVoiceComponent</title>
<polygon fill="#ffffb3" stroke="#000000" points="580.6331,-122 441.3669,-122 441.3669,-86 580.6331,-86 580.6331,-122"/>
<text text-anchor="middle" x="511" y="-99.8" font-family="Times,serif" font-size="14.00" fill="#000000">TwcVoiceComponent</text>
</g>
<!-- TwcVoiceComponent&#45;&gt;TwContentModule -->
<g id="edge8" class="edge">
<title>TwcVoiceComponent&#45;&gt;TwContentModule</title>
<path fill="none" stroke="#000000" d="M511,-122.0225C511,-139.3734 511,-163 511,-163 511,-163 784.7185,-163 784.7185,-163"/>
<polygon fill="#000000" stroke="#000000" points="784.7185,-166.5001 794.7185,-163 784.7184,-159.5001 784.7185,-166.5001"/>
</g>
<!-- TwcNoWidgetsComponent  -->
<g id="node13" class="node">
<title>TwcNoWidgetsComponent </title>
<polygon fill="#fb8072" stroke="#000000" points="942.9684,-252 769.0316,-252 769.0316,-216 942.9684,-216 942.9684,-252"/>
<text text-anchor="middle" x="856" y="-229.8" font-family="Times,serif" font-size="14.00" fill="#000000">TwcNoWidgetsComponent </text>
</g>
<!-- TwContentModule&#45;&gt;TwcNoWidgetsComponent  -->
<g id="edge12" class="edge">
<title>TwContentModule&#45;&gt;TwcNoWidgetsComponent </title>
<path fill="none" stroke="#000000" stroke-dasharray="5,2" d="M856,-187.1061C856,-187.1061 856,-205.991 856,-205.991"/>
<polygon fill="#000000" stroke="#000000" points="852.5001,-205.9909 856,-215.991 859.5001,-205.991 852.5001,-205.9909"/>
</g>
<!-- SharedModule -->
<g id="node10" class="node">
<title>SharedModule</title>
<polygon fill="#8dd3c7" stroke="#000000" points="417.4231,-122 414.4231,-126 393.4231,-126 390.4231,-122 318.5769,-122 318.5769,-86 417.4231,-86 417.4231,-122"/>
<text text-anchor="middle" x="368" y="-99.8" font-family="Times,serif" font-size="14.00" fill="#000000">SharedModule</text>
</g>
<!-- SharedModule&#45;&gt;TwContentModule -->
<g id="edge9" class="edge">
<title>SharedModule&#45;&gt;TwContentModule</title>
<path fill="none" stroke="#000000" d="M368,-122.1061C368,-141.3391 368,-169 368,-169 368,-169 784.6886,-169 784.6886,-169"/>
<polygon fill="#000000" stroke="#000000" points="784.6886,-172.5001 794.6886,-169 784.6886,-165.5001 784.6886,-172.5001"/>
</g>
<!-- TwTemplateModule -->
<g id="node11" class="node">
<title>TwTemplateModule</title>
<polygon fill="#8dd3c7" stroke="#000000" points="300.5772,-122 297.5772,-126 276.5772,-126 273.5772,-122 169.4228,-122 169.4228,-86 300.5772,-86 300.5772,-122"/>
<text text-anchor="middle" x="235" y="-99.8" font-family="Times,serif" font-size="14.00" fill="#000000">TwTemplateModule</text>
</g>
<!-- TwTemplateModule&#45;&gt;TwContentModule -->
<g id="edge10" class="edge">
<title>TwTemplateModule&#45;&gt;TwContentModule</title>
<path fill="none" stroke="#000000" d="M235,-122.2843C235,-143.3211 235,-175 235,-175 235,-175 784.7566,-175 784.7566,-175"/>
<polygon fill="#000000" stroke="#000000" points="784.7566,-178.5001 794.7566,-175 784.7566,-171.5001 784.7566,-178.5001"/>
</g>
<!-- TwWrapperModule -->
<g id="node12" class="node">
<title>TwWrapperModule</title>
<polygon fill="#8dd3c7" stroke="#000000" points="151.6741,-122 148.6741,-126 127.6741,-126 124.6741,-122 24.3259,-122 24.3259,-86 151.6741,-86 151.6741,-122"/>
<text text-anchor="middle" x="88" y="-99.8" font-family="Times,serif" font-size="14.00" fill="#000000">TwWrapperModule</text>
</g>
<!-- TwWrapperModule&#45;&gt;TwContentModule -->
<g id="edge11" class="edge">
<title>TwWrapperModule&#45;&gt;TwContentModule</title>
<path fill="none" stroke="#000000" d="M88,-122.2479C88,-145.0179 88,-181 88,-181 88,-181 784.7723,-181 784.7723,-181"/>
<polygon fill="#000000" stroke="#000000" points="784.7724,-184.5001 794.7723,-181 784.7723,-177.5001 784.7724,-184.5001"/>
</g>
</g>
</svg>
